<?xml version="1.0" encoding="UTF-8" standalone="no"?>
<!-- Svg Vector Icons : http://www.onlinewebfonts.com/icon -->

<svg
   version="1.1"
   x="0px"
   y="0px"
   viewBox="0 0 256 256"
   enable-background="new 0 0 256 256"
   xml:space="preserve"
   id="svg5"
   sodipodi:docname="bank.svg"
   inkscape:version="1.3.2 (091e20ef0f, 2023-11-25)"
   xmlns:inkscape="http://www.inkscape.org/namespaces/inkscape"
   xmlns:sodipodi="http://sodipodi.sourceforge.net/DTD/sodipodi-0.dtd"
   xmlns="http://www.w3.org/2000/svg"
   xmlns:svg="http://www.w3.org/2000/svg"><defs
   id="defs5" /><sodipodi:namedview
   id="namedview5"
   pagecolor="#ffffff"
   bordercolor="#000000"
   borderopacity="0.25"
   inkscape:showpageshadow="2"
   inkscape:pageopacity="0.0"
   inkscape:pagecheckerboard="0"
   inkscape:deskcolor="#d1d1d1"
   inkscape:zoom="4.4101562"
   inkscape:cx="128"
   inkscape:cy="128"
   inkscape:window-width="2560"
   inkscape:window-height="1335"
   inkscape:window-x="0"
   inkscape:window-y="0"
   inkscape:window-maximized="1"
   inkscape:current-layer="g3" />
<metadata
   id="metadata1"> Svg Vector Icons : http://www.onlinewebfonts.com/icon </metadata>
<g
   id="g5"><g
     id="g4"><g
       id="g3"><path
         fill="#000000"
         d="M75.5,34.1L23.1,58L23,62.6l-0.1,4.7h-6.4H10v7.4V82h118h118v-7.4v-7.4h-6.5h-6.4l-0.1-4.6l-0.1-4.7l-31.1-14.2C184.7,36,161.2,25.3,149.7,20c-11.5-5.3-21.2-9.6-21.4-9.7C128,10.3,104.2,20.9,75.5,34.1z M134.1,32.6c2.8,1.2,6.1,4.6,7.4,7.4c0.8,1.7,1,3,1,6.1c0,4.7-1,7.2-4.1,10.4c-3.1,3.2-5.6,4.1-10.4,4.1c-4.7,0-7.2-1-10.4-4.1c-7.7-7.7-4.6-21.1,5.9-24.5C126.2,31.1,131.4,31.4,134.1,32.6z"
         id="path1"
         style="fill:#5d6166;fill-opacity:1" /><path
         fill="#000000"
         d="M22,112v20.7h-1.8h-1.8v5.5v5.5h1.8H22v37.3v37.3h13.8h13.8v-37.3v-37.3h1.8h1.8v-5.5v-5.5h-1.9h-1.9l0.2-4.1c0.3-6.7,2.9-10.7,8.7-13.4c2.2-1,3.2-1.2,6.9-1.2c3.7,0,4.7,0.2,6.9,1.2c5.8,2.7,8.3,6.7,8.7,13.4l0.2,4.1h-1.9h-1.9v5.5v5.5h1.8H81v37.3v37.3h15.7h15.7v-37.3v-37.3h1.8h1.8v-5.5v-5.5h-1.9h-1.9l0.2-4.1c0.3-6.7,2.9-10.7,8.7-13.4c2.2-1,3.2-1.2,6.9-1.2c3.7,0,4.7,0.2,6.9,1.2c5.8,2.7,8.3,6.7,8.7,13.4l0.2,4.1h-1.9H140v5.5v5.5h1.8h1.8v37.3v37.3h15.7H175v-37.3v-37.3h1.8h1.8v-5.5v-5.5h-1.9h-1.9l0.2-4.1c0.3-6.7,2.9-10.7,8.7-13.4c2.2-1,3.2-1.2,6.9-1.2c3.7,0,4.7,0.2,6.9,1.2c5.8,2.7,8.3,6.7,8.7,13.4l0.2,4.1h-1.9h-1.9v5.5v5.5h1.8h1.8v37.3v37.3h13.8H234v-37.3v-37.3h1.8h1.8v-5.5v-5.5h-1.8H234V112V91.2H128H22V112z"
         id="path2"
         style="fill:#5d6166;fill-opacity:1" /><path
         fill="#000000"
         d="M10,236.7v9h118h118v-9v-9H128H10V236.7z"
         id="path3"
         style="fill:#5d6166;fill-opacity:1" /></g></g></g>
</svg>
