<?xml version="1.0" encoding="UTF-8" standalone="no"?>
<svg
   xmlns:dc="http://purl.org/dc/elements/1.1/"
   xmlns:cc="http://creativecommons.org/ns#"
   xmlns:rdf="http://www.w3.org/1999/02/22-rdf-syntax-ns#"
   xmlns:svg="http://www.w3.org/2000/svg"
   xmlns="http://www.w3.org/2000/svg"
   xml:space="preserve"
   enable-background="new 0 0 273.6 360"
   viewBox="0 0 273.6 360"
   height="360px"
   width="273.6px"
   y="0px"
   x="0px"
   id="Layer_1"
   version="1.1"><metadata
   id="metadata72"><rdf:RDF><cc:Work
       rdf:about=""><dc:format>image/svg+xml</dc:format><dc:type
         rdf:resource="http://purl.org/dc/dcmitype/StillImage" /><dc:title></dc:title></cc:Work></rdf:RDF></metadata><defs
   id="defs70" />
<g
   transform="rotate(15,158.18187,182.83212)"
   style="fill:#ff712c;fill-opacity:1"
   id="g65">
	<g
   style="fill:#ff712c;fill-opacity:1"
   id="g63">
		<path
   style="fill:#ff712c;fill-opacity:1"
   id="path61"
   d="m 217.021,167.042 c 18.631,-9.483 30.288,-26.184 27.565,-54.007 C 240.919,75.012 208.06,62.262 166.58,58.631 L 166.572,5.89 h -32.139 l -0.009,51.354 c -8.456,0 -17.076,0.166 -25.657,0.338 L 108.76,5.897 76.65,5.894 76.644,58.622 c -6.959,0.142 -13.793,0.277 -20.466,0.277 v -0.156 l -44.33,-0.018 0.006,34.282 c 0,0 23.734,-0.446 23.343,-0.013 13.013,0.009 17.262,7.559 18.484,14.076 l 0.01,60.083 v 84.397 c -0.573,4.09 -2.984,10.625 -12.083,10.637 0.414,0.364 -23.379,-0.004 -23.379,-0.004 l -6.375,38.335 h 41.817 c 7.792,0.009 15.448,0.13 22.959,0.19 l 0.028,53.338 32.102,0.009 -0.009,-52.779 c 8.832,0.18 17.357,0.258 25.684,0.247 l -0.009,52.532 h 32.138 l 0.018,-53.249 c 54.022,-3.1 91.842,-16.697 96.544,-67.385 3.79,-40.809 -15.434,-59.025 -46.105,-66.379 z M 109.535,95.321 c 18.126,0 75.132,-5.767 75.14,32.064 -0.008,36.269 -56.996,32.032 -75.14,32.032 V 95.321 Z m -0.014,167.126 0.014,-70.672 c 21.778,-0.006 90.085,-6.261 90.094,35.32 0.009,39.876 -68.316,35.336 -90.108,35.352 z" />
	</g>
</g>
</svg>